<mxfile host="app.diagrams.net" agent="Mozilla/5.0 (Windows NT 10.0; Win64; x64) AppleWebKit/537.36 (KHTML, like Gecko) Chrome/132.0.0.0 Safari/537.36" version="26.0.11">
  <diagram name="第 1 页" id="v4bv4H6wGKnXhYn1X28j">
    <mxGraphModel dx="1365" dy="808" grid="0" gridSize="10" guides="1" tooltips="1" connect="1" arrows="1" fold="1" page="1" pageScale="1" pageWidth="2339" pageHeight="3300" math="0" shadow="0">
      <root>
        <mxCell id="0" />
        <mxCell id="1" parent="0" />
        <mxCell id="YQaEqnDoe5XjPp9XFCwa-3" value="" style="edgeStyle=orthogonalEdgeStyle;rounded=0;orthogonalLoop=1;jettySize=auto;html=1;" edge="1" parent="1" source="YQaEqnDoe5XjPp9XFCwa-1" target="YQaEqnDoe5XjPp9XFCwa-2">
          <mxGeometry relative="1" as="geometry" />
        </mxCell>
        <mxCell id="YQaEqnDoe5XjPp9XFCwa-1" value="&lt;span style=&quot;font-family: &amp;quot;Microsoft YaHei&amp;quot;, 微软雅黑, Arial; font-size: 13px; background-color: rgba(255, 255, 255, 0.01);&quot;&gt;&lt;font style=&quot;&quot;&gt;Nginx服务&lt;/font&gt;&lt;/span&gt;&lt;div style=&quot;resize: none; outline: none; font-size: 13px; font-family: &amp;quot;Microsoft YaHei&amp;quot;, 微软雅黑, Arial;&quot;&gt;&lt;font style=&quot;&quot;&gt;172.31.4.238&lt;/font&gt;&lt;/div&gt;" style="rounded=0;whiteSpace=wrap;html=1;strokeColor=none;fillColor=light-dark(#66B2FF,#EDEDED);fontColor=light-dark(#ffffff, #ededed);fontStyle=0" vertex="1" parent="1">
          <mxGeometry x="455" y="197" width="120" height="60" as="geometry" />
        </mxCell>
        <mxCell id="YQaEqnDoe5XjPp9XFCwa-32" value="" style="edgeStyle=orthogonalEdgeStyle;rounded=0;orthogonalLoop=1;jettySize=auto;html=1;" edge="1" parent="1" source="YQaEqnDoe5XjPp9XFCwa-2" target="YQaEqnDoe5XjPp9XFCwa-17">
          <mxGeometry relative="1" as="geometry" />
        </mxCell>
        <mxCell id="YQaEqnDoe5XjPp9XFCwa-33" style="edgeStyle=orthogonalEdgeStyle;rounded=0;orthogonalLoop=1;jettySize=auto;html=1;exitX=0.5;exitY=1;exitDx=0;exitDy=0;entryX=0.5;entryY=0;entryDx=0;entryDy=0;" edge="1" parent="1" source="YQaEqnDoe5XjPp9XFCwa-2" target="YQaEqnDoe5XjPp9XFCwa-14">
          <mxGeometry relative="1" as="geometry" />
        </mxCell>
        <mxCell id="YQaEqnDoe5XjPp9XFCwa-34" style="edgeStyle=orthogonalEdgeStyle;rounded=0;orthogonalLoop=1;jettySize=auto;html=1;entryX=0.5;entryY=0;entryDx=0;entryDy=0;exitX=0.5;exitY=1;exitDx=0;exitDy=0;" edge="1" parent="1" source="YQaEqnDoe5XjPp9XFCwa-2" target="YQaEqnDoe5XjPp9XFCwa-18">
          <mxGeometry relative="1" as="geometry">
            <mxPoint x="520" y="350" as="sourcePoint" />
            <Array as="points">
              <mxPoint x="515" y="380" />
              <mxPoint x="695" y="380" />
            </Array>
          </mxGeometry>
        </mxCell>
        <mxCell id="YQaEqnDoe5XjPp9XFCwa-2" value="&lt;span style=&quot;font-family: &amp;quot;Microsoft YaHei&amp;quot;, 微软雅黑, Arial; font-size: 13px; background-color: rgba(255, 255, 255, 0.01);&quot;&gt;GateWay网关&lt;/span&gt;&lt;div style=&quot;resize: none; outline: none; font-size: 13px; font-family: &amp;quot;Microsoft YaHei&amp;quot;, 微软雅黑, Arial;&quot;&gt;172.31.4.233&lt;/div&gt;" style="rounded=0;whiteSpace=wrap;html=1;strokeColor=none;fillColor=light-dark(#66B2FF,#EDEDED);fontColor=light-dark(#ffffff, #ededed);fontStyle=0" vertex="1" parent="1">
          <mxGeometry x="455" y="290" width="120" height="60" as="geometry" />
        </mxCell>
        <mxCell id="YQaEqnDoe5XjPp9XFCwa-6" value="" style="endArrow=none;dashed=1;html=1;dashPattern=1 3;strokeWidth=2;rounded=0;" edge="1" parent="1">
          <mxGeometry width="50" height="50" relative="1" as="geometry">
            <mxPoint x="200" y="179" as="sourcePoint" />
            <mxPoint x="920" y="179" as="targetPoint" />
          </mxGeometry>
        </mxCell>
        <mxCell id="YQaEqnDoe5XjPp9XFCwa-7" value="&lt;span style=&quot;font-family: &amp;quot;Microsoft YaHei&amp;quot;, 微软雅黑, Arial; font-size: 13px; background-color: rgba(255, 255, 255, 0.01);&quot;&gt;XXL-JOB&lt;/span&gt;&lt;div&gt;&lt;div style=&quot;resize: none; outline: none; font-size: 13px; font-family: &amp;quot;Microsoft YaHei&amp;quot;, 微软雅黑, Arial;&quot;&gt;172.31.4.233&lt;/div&gt;&lt;/div&gt;" style="rounded=0;whiteSpace=wrap;html=1;strokeColor=none;fillColor=light-dark(#66B2FF,#EDEDED);fontColor=light-dark(#ffffff, #ededed);fontStyle=0" vertex="1" parent="1">
          <mxGeometry x="811" y="410" width="120" height="60" as="geometry" />
        </mxCell>
        <mxCell id="YQaEqnDoe5XjPp9XFCwa-70" style="edgeStyle=orthogonalEdgeStyle;rounded=0;orthogonalLoop=1;jettySize=auto;html=1;entryX=0.5;entryY=0;entryDx=0;entryDy=0;" edge="1" parent="1" source="YQaEqnDoe5XjPp9XFCwa-14" target="YQaEqnDoe5XjPp9XFCwa-53">
          <mxGeometry relative="1" as="geometry" />
        </mxCell>
        <mxCell id="YQaEqnDoe5XjPp9XFCwa-14" value="&lt;span style=&quot;font-family: &amp;quot;Microsoft YaHei&amp;quot;, 微软雅黑, Arial; font-size: 13px; background-color: rgba(255, 255, 255, 0.01);&quot;&gt;module-system&lt;/span&gt;&lt;div&gt;&lt;div&gt;&lt;div style=&quot;resize: none; outline: none; font-size: 13px; font-family: &amp;quot;Microsoft YaHei&amp;quot;, 微软雅黑, Arial;&quot;&gt;172.31.4.233&lt;/div&gt;&lt;/div&gt;&lt;/div&gt;" style="rounded=0;whiteSpace=wrap;html=1;strokeColor=none;fillColor=light-dark(#66B2FF,#EDEDED);fontColor=light-dark(#ffffff, #ededed);fontStyle=0" vertex="1" parent="1">
          <mxGeometry x="286" y="410" width="120" height="60" as="geometry" />
        </mxCell>
        <mxCell id="YQaEqnDoe5XjPp9XFCwa-69" style="edgeStyle=orthogonalEdgeStyle;rounded=0;orthogonalLoop=1;jettySize=auto;html=1;entryX=0.5;entryY=0;entryDx=0;entryDy=0;" edge="1" parent="1" source="YQaEqnDoe5XjPp9XFCwa-17" target="YQaEqnDoe5XjPp9XFCwa-53">
          <mxGeometry relative="1" as="geometry" />
        </mxCell>
        <mxCell id="YQaEqnDoe5XjPp9XFCwa-17" value="&lt;span style=&quot;font-family: &amp;quot;Microsoft YaHei&amp;quot;, 微软雅黑, Arial; font-size: 13px; background-color: rgba(255, 255, 255, 0.01);&quot;&gt;module-infra&lt;/span&gt;&lt;div&gt;&lt;div&gt;&lt;div style=&quot;resize: none; outline: none; font-size: 13px; font-family: &amp;quot;Microsoft YaHei&amp;quot;, 微软雅黑, Arial;&quot;&gt;172.31.4.233&lt;/div&gt;&lt;/div&gt;&lt;/div&gt;" style="rounded=0;whiteSpace=wrap;html=1;strokeColor=none;fillColor=light-dark(#66B2FF,#EDEDED);fontColor=light-dark(#ffffff, #ededed);fontStyle=0" vertex="1" parent="1">
          <mxGeometry x="455" y="410" width="120" height="60" as="geometry" />
        </mxCell>
        <mxCell id="YQaEqnDoe5XjPp9XFCwa-60" value="" style="edgeStyle=orthogonalEdgeStyle;rounded=0;orthogonalLoop=1;jettySize=auto;html=1;" edge="1" parent="1" source="YQaEqnDoe5XjPp9XFCwa-18" target="YQaEqnDoe5XjPp9XFCwa-7">
          <mxGeometry relative="1" as="geometry" />
        </mxCell>
        <mxCell id="YQaEqnDoe5XjPp9XFCwa-71" style="edgeStyle=orthogonalEdgeStyle;rounded=0;orthogonalLoop=1;jettySize=auto;html=1;entryX=0.5;entryY=0;entryDx=0;entryDy=0;" edge="1" parent="1" source="YQaEqnDoe5XjPp9XFCwa-18" target="YQaEqnDoe5XjPp9XFCwa-53">
          <mxGeometry relative="1" as="geometry" />
        </mxCell>
        <mxCell id="YQaEqnDoe5XjPp9XFCwa-18" value="&lt;span style=&quot;font-family: &amp;quot;Microsoft YaHei&amp;quot;, 微软雅黑, Arial; font-size: 13px; background-color: rgba(255, 255, 255, 0.01);&quot;&gt;module-&lt;/span&gt;&lt;span style=&quot;background-color: transparent; color: light-dark(rgb(255, 255, 255), rgb(237, 237, 237)); font-family: &amp;quot;Microsoft YaHei&amp;quot;, 微软雅黑, Arial; font-size: 13px;&quot;&gt;service&lt;/span&gt;&lt;div&gt;&lt;span style=&quot;font-family: &amp;quot;Microsoft YaHei&amp;quot;, 微软雅黑, Arial; font-size: 13px; background-color: transparent; color: light-dark(rgb(255, 255, 255), rgb(237, 237, 237));&quot;&gt;172.31.4.233&lt;/span&gt;&lt;/div&gt;" style="rounded=0;whiteSpace=wrap;html=1;strokeColor=none;fillColor=light-dark(#66B2FF,#EDEDED);fontColor=light-dark(#ffffff, #ededed);fontStyle=0" vertex="1" parent="1">
          <mxGeometry x="626" y="410" width="120" height="60" as="geometry" />
        </mxCell>
        <mxCell id="YQaEqnDoe5XjPp9XFCwa-31" value="" style="edgeStyle=orthogonalEdgeStyle;rounded=0;orthogonalLoop=1;jettySize=auto;html=1;" edge="1" parent="1" source="YQaEqnDoe5XjPp9XFCwa-30" target="YQaEqnDoe5XjPp9XFCwa-1">
          <mxGeometry relative="1" as="geometry" />
        </mxCell>
        <UserObject label="&lt;span style=&quot;color: rgb(50, 50, 50); font-family: &amp;quot;Microsoft YaHei&amp;quot;, 微软雅黑, Arial; font-size: 13px; font-style: normal; font-variant-ligatures: normal; font-variant-caps: normal; font-weight: 400; letter-spacing: normal; orphans: 2; text-indent: 0px; text-transform: none; widows: 2; word-spacing: 0px; -webkit-text-stroke-width: 0px; white-space: normal; text-decoration-thickness: initial; text-decoration-style: initial; text-decoration-color: initial; float: none; display: inline !important;&quot;&gt;led.inspur.com&lt;/span&gt;&lt;br style=&quot;color: rgb(50, 50, 50); font-family: &amp;quot;Microsoft YaHei&amp;quot;, 微软雅黑, Arial; font-size: 13px; font-style: normal; font-variant-ligatures: normal; font-variant-caps: normal; font-weight: 400; letter-spacing: normal; orphans: 2; text-indent: 0px; text-transform: none; widows: 2; word-spacing: 0px; -webkit-text-stroke-width: 0px; white-space: normal; text-decoration-thickness: initial; text-decoration-style: initial; text-decoration-color: initial;&quot;&gt;&lt;span style=&quot;color: rgb(50, 50, 50); font-family: &amp;quot;Microsoft YaHei&amp;quot;, 微软雅黑, Arial; font-size: 13px; font-style: normal; font-variant-ligatures: normal; font-variant-caps: normal; font-weight: 400; letter-spacing: normal; orphans: 2; text-indent: 0px; text-transform: none; widows: 2; word-spacing: 0px; -webkit-text-stroke-width: 0px; white-space: normal; text-decoration-thickness: initial; text-decoration-style: initial; text-decoration-color: initial; float: none; display: inline !important;&quot;&gt;(公网：221.214.76.102&lt;/span&gt;&lt;div style=&quot;resize: none; outline: none; font-size: 13px; color: rgb(50, 50, 50); font-family: &amp;quot;Microsoft YaHei&amp;quot;, 微软雅黑, Arial; font-style: normal; font-variant-ligatures: normal; font-variant-caps: normal; font-weight: 400; letter-spacing: normal; orphans: 2; text-indent: 0px; text-transform: none; widows: 2; word-spacing: 0px; -webkit-text-stroke-width: 0px; white-space: normal; text-decoration-thickness: initial; text-decoration-style: initial; text-decoration-color: initial;&quot;&gt;内网：172.31.4.238&lt;span style=&quot;font-size: inherit;&quot;&gt;)&lt;/span&gt;&lt;/div&gt;" link="&lt;span style=&quot;color: rgb(50, 50, 50); font-family: &amp;quot;Microsoft YaHei&amp;quot;, 微软雅黑, Arial; font-size: 13px; font-style: normal; font-variant-ligatures: normal; font-variant-caps: normal; font-weight: 400; letter-spacing: normal; orphans: 2; text-align: center; text-indent: 0px; text-transform: none; widows: 2; word-spacing: 0px; -webkit-text-stroke-width: 0px; white-space: normal; background-color: rgba(255, 255, 255, 0.01); text-decoration-thickness: initial; text-decoration-style: initial; text-decoration-color: initial; display: inline !important; float: none;&quot;&gt;led.inspur.com&lt;/span&gt;&lt;br style=&quot;color: rgb(50, 50, 50); font-family: &amp;quot;Microsoft YaHei&amp;quot;, 微软雅黑, Arial; font-size: 13px; font-style: normal; font-variant-ligatures: normal; font-variant-caps: normal; font-weight: 400; letter-spacing: normal; orphans: 2; text-align: center; text-indent: 0px; text-transform: none; widows: 2; word-spacing: 0px; -webkit-text-stroke-width: 0px; white-space: normal; text-decoration-thickness: initial; text-decoration-style: initial; text-decoration-color: initial;&quot;&gt;&lt;span style=&quot;color: rgb(50, 50, 50); font-family: &amp;quot;Microsoft YaHei&amp;quot;, 微软雅黑, Arial; font-size: 13px; font-style: normal; font-variant-ligatures: normal; font-variant-caps: normal; font-weight: 400; letter-spacing: normal; orphans: 2; text-align: center; text-indent: 0px; text-transform: none; widows: 2; word-spacing: 0px; -webkit-text-stroke-width: 0px; white-space: normal; background-color: rgba(255, 255, 255, 0.01); text-decoration-thickness: initial; text-decoration-style: initial; text-decoration-color: initial; display: inline !important; float: none;&quot;&gt;(公网：221.214.76.102&lt;/span&gt;&lt;div style=&quot;resize: none; outline: none; font-size: 13px; color: rgb(50, 50, 50); font-family: &amp;quot;Microsoft YaHei&amp;quot;, 微软雅黑, Arial; font-style: normal; font-variant-ligatures: normal; font-variant-caps: normal; font-weight: 400; letter-spacing: normal; orphans: 2; text-align: center; text-indent: 0px; text-transform: none; widows: 2; word-spacing: 0px; -webkit-text-stroke-width: 0px; white-space: normal; text-decoration-thickness: initial; text-decoration-style: initial; text-decoration-color: initial;&quot;&gt;内网：172.31.4.238&lt;span style=&quot;font-size: inherit;&quot;&gt;)&lt;/span&gt;&lt;/div&gt;" id="YQaEqnDoe5XjPp9XFCwa-30">
          <mxCell style="text;whiteSpace=wrap;html=1;align=center;labelBackgroundColor=none;fillColor=#B9E0A5;gradientColor=none;" vertex="1" parent="1">
            <mxGeometry x="430" y="90" width="170" height="70" as="geometry" />
          </mxCell>
        </UserObject>
        <mxCell id="YQaEqnDoe5XjPp9XFCwa-59" value="" style="group" vertex="1" connectable="0" parent="1">
          <mxGeometry x="286.5" y="540" width="457" height="170" as="geometry" />
        </mxCell>
        <mxCell id="YQaEqnDoe5XjPp9XFCwa-53" value="" style="rounded=1;whiteSpace=wrap;html=1;fillColor=none;" vertex="1" parent="YQaEqnDoe5XjPp9XFCwa-59">
          <mxGeometry width="457" height="170" as="geometry" />
        </mxCell>
        <mxCell id="YQaEqnDoe5XjPp9XFCwa-8" value="&lt;span style=&quot;font-family: &amp;quot;Microsoft YaHei&amp;quot;, 微软雅黑, Arial; font-size: 13px; background-color: rgba(255, 255, 255, 0.01);&quot;&gt;RocketMQ&lt;/span&gt;&lt;div&gt;&lt;div&gt;&lt;div style=&quot;resize: none; outline: none; font-size: 13px; font-family: &amp;quot;Microsoft YaHei&amp;quot;, 微软雅黑, Arial;&quot;&gt;172.31.4.233&lt;/div&gt;&lt;/div&gt;&lt;/div&gt;" style="rounded=0;whiteSpace=wrap;html=1;strokeColor=none;fillColor=light-dark(#66B2FF,#EDEDED);fontColor=light-dark(#ffffff, #ededed);fontStyle=0" vertex="1" parent="YQaEqnDoe5XjPp9XFCwa-59">
          <mxGeometry x="27" y="93" width="120" height="60" as="geometry" />
        </mxCell>
        <mxCell id="YQaEqnDoe5XjPp9XFCwa-11" value="&lt;font face=&quot;Microsoft YaHei, 微软雅黑, Arial&quot;&gt;&lt;span style=&quot;font-size: 13px; background-color: rgba(255, 255, 255, 0.01);&quot;&gt;Mysql&lt;/span&gt;&lt;/font&gt;&lt;br&gt;&lt;div&gt;&lt;div&gt;&lt;div style=&quot;resize: none; outline: none; font-size: 13px; font-family: &amp;quot;Microsoft YaHei&amp;quot;, 微软雅黑, Arial;&quot;&gt;172.31.4.238&lt;/div&gt;&lt;/div&gt;&lt;/div&gt;" style="rounded=0;whiteSpace=wrap;html=1;strokeColor=none;fillColor=light-dark(#66B2FF,#EDEDED);fontColor=light-dark(#ffffff, #ededed);fontStyle=0" vertex="1" parent="YQaEqnDoe5XjPp9XFCwa-59">
          <mxGeometry x="172" y="13" width="120" height="60" as="geometry" />
        </mxCell>
        <mxCell id="YQaEqnDoe5XjPp9XFCwa-9" value="&lt;font face=&quot;Microsoft YaHei, 微软雅黑, Arial&quot;&gt;&lt;span style=&quot;font-size: 13px; background-color: rgba(255, 255, 255, 0.01);&quot;&gt;Nacos&lt;/span&gt;&lt;/font&gt;&lt;br&gt;&lt;div&gt;&lt;div&gt;&lt;div style=&quot;resize: none; outline: none; font-size: 13px; font-family: &amp;quot;Microsoft YaHei&amp;quot;, 微软雅黑, Arial;&quot;&gt;172.31.4.238&lt;/div&gt;&lt;/div&gt;&lt;/div&gt;" style="rounded=0;whiteSpace=wrap;html=1;strokeColor=none;fillColor=light-dark(#66B2FF,#EDEDED);fontColor=light-dark(#ffffff, #ededed);fontStyle=0" vertex="1" parent="YQaEqnDoe5XjPp9XFCwa-59">
          <mxGeometry x="27" y="13" width="120" height="60" as="geometry" />
        </mxCell>
        <mxCell id="YQaEqnDoe5XjPp9XFCwa-55" value="&lt;font face=&quot;Microsoft YaHei, 微软雅黑, Arial&quot;&gt;&lt;span style=&quot;font-size: 13px; background-color: rgba(255, 255, 255, 0.01);&quot;&gt;Redis&lt;/span&gt;&lt;/font&gt;&lt;br&gt;&lt;div&gt;&lt;div&gt;&lt;div style=&quot;resize: none; outline: none; font-size: 13px; font-family: &amp;quot;Microsoft YaHei&amp;quot;, 微软雅黑, Arial;&quot;&gt;172.31.4.233&lt;/div&gt;&lt;/div&gt;&lt;/div&gt;" style="rounded=0;whiteSpace=wrap;html=1;strokeColor=none;fillColor=light-dark(#66B2FF,#EDEDED);fontColor=light-dark(#ffffff, #ededed);fontStyle=0" vertex="1" parent="YQaEqnDoe5XjPp9XFCwa-59">
          <mxGeometry x="172" y="93" width="120" height="60" as="geometry" />
        </mxCell>
        <mxCell id="YQaEqnDoe5XjPp9XFCwa-56" value="&lt;font face=&quot;Microsoft YaHei, 微软雅黑, Arial&quot;&gt;&lt;span style=&quot;font-size: 13px; background-color: rgba(255, 255, 255, 0.01);&quot;&gt;MinIO&lt;/span&gt;&lt;/font&gt;&lt;br&gt;&lt;div&gt;&lt;div&gt;&lt;div style=&quot;resize: none; outline: none; font-size: 13px; font-family: &amp;quot;Microsoft YaHei&amp;quot;, 微软雅黑, Arial;&quot;&gt;172.31.4.233&lt;/div&gt;&lt;/div&gt;&lt;/div&gt;" style="rounded=0;whiteSpace=wrap;html=1;strokeColor=none;fillColor=light-dark(#66B2FF,#EDEDED);fontColor=light-dark(#ffffff, #ededed);fontStyle=0" vertex="1" parent="YQaEqnDoe5XjPp9XFCwa-59">
          <mxGeometry x="313" y="13" width="120" height="60" as="geometry" />
        </mxCell>
      </root>
    </mxGraphModel>
  </diagram>
</mxfile>
